<?xml version="1.0" encoding="utf-8"?>
<!-- Generator: Adobe Illustrator 23.0.2, SVG Export Plug-In . SVG Version: 6.00 Build 0)  -->
<svg version="1.1" id="图层_1" xmlns="http://www.w3.org/2000/svg" xmlns:xlink="http://www.w3.org/1999/xlink" x="0px" y="0px"
	 viewBox="0 0 800 251" style="enable-background:new 0 0 800 251;" xml:space="preserve">
<style type="text/css">
	.st0{fill:#231815;}
</style>
<g>
	<path class="st0" d="M204.1,18.7v71h-7.6c-8.3-32.6-37.9-56.8-73.1-56.8h-1.2h-19.1H84.5v18.7v45v19.2l19.2-0.5l2.1-0.1
		c16.2-0.1,29.8-11.2,33.8-26.2h2.7v66.9h-3.4c-4.7-13.9-17.8-24-33.3-24.1l-0.3,0l-0.3,0l-2.3,0.1l-18.1,0.5v18.1v48.4v18.7h18.7
		h9.7V232H18.7v-14.7h10.2h18.7v-18.7V53.1V34.5H28.9H18.7V18.7H204.1 M222.8,0H0v53.1h28.9v145.5H0v52h131.5v-52h-28.4v-48.4
		l2.3-0.1c9.1,0,16.5,7.5,16.5,16.6v7.5h38.9V70.1H122v9.8c0,9.1-7.4,16.5-16.5,16.5c0,0,0,0-0.1,0l-2.3,0.1v-45h19.1h1.2
		c31.3,0,56.8,25.4,56.8,56.8v0.1h42.6V0L222.8,0z"/>
	<path class="st0" d="M767,18.7c7.9,0,14.3,6.4,14.3,14.3v74.3c0,19.1-13.5,35.7-32.2,39.6l-55.5,11.5c-18.5,3.8-32,20.4-32,39.3
		v18.7h18.7h101V232H621.7v-51.8c0-22.2,15.9-40.8,37.9-44.3l54.2-8.5c15.6-2.4,26.9-15.6,26.9-31.4V49.5V30.9H722h-44.3H659v18.7
		v39.1h-37.3V33c0-7.9,6.4-14.4,14.4-14.4H767 M767,0H636c-18.2,0-33,14.8-33,33v74.2h74.6V49.5H722V96c0,6.5-4.7,12-11.1,13
		l-54.2,8.5c-30.9,4.8-53.6,31.4-53.6,62.7v70.4h197v-52.9H680.4c0-10.2,7.1-19,17.1-21l55.5-11.5c27.4-5.7,47.1-29.9,47.1-57.9v0
		V33C800,14.8,785.2,0,767,0L767,0z"/>
	<path class="st0" d="M563.1,53.1V0H437.3l-5.7,18.7l-4.8,15.8l-24.7,81l-25.6-81l-5-15.8L365.6,0H237.2v53.1h29.9v145.5h-29.9v52
		H345v-52h-23.2v-83.1l43.8,135.1h51.1l42.8-135.1v83.1h-22.2v52h123.8v-52h-25.8V53.1H563.1z M535.3,217.3h7.1V232H456v-14.7h3.5
		h18.7v-18.7v-83.1v-81h-12.5l-23.9,75.4L403,232h-23.8l-39.6-122.2l-24.4-75.3h-12v81v83.1v18.7h18.7h4.6V232h-70.5v-14.7h11.3
		h18.7v-18.7V53.1V34.5h-18.7h-11.3V18.7h47.3h6.8h42l5,15.8l27.4,86.7l18.1,57.3l17.5-57.5l26.3-86.5l4.8-15.8h19.5h7.5h66.4v15.8
		h-9.2h-18.7v18.7v145.5v18.7H535.3z"/>
</g>
</svg>
